Coordinates
version=1
nRows=30
nColumns=19
inDegrees=yes

Units are S.I. units (second, meters, Newtons, ...)
If the header above contains a line with 'inDegrees', this indicates whether rotational values are in degrees (yes) or radians (no).

endheader
time	pelvis_to_ground_rx	pelvis_to_ground_ry	pelvis_to_ground_rz	pelvis_to_ground_tx	pelvis_to_ground_ty	pelvis_to_ground_tz	left_hip_abduction	left_hip_rotation	left_hip_flexion	left_knee_flexion	left_ankle_flexion	left_subtalar_angle	right_hip_abduction	right_hip_rotation	right_hip_flexion	right_knee_flexion	right_ankle_flexion	right_subtalar_angle
      2.07000000	    100.38918518	      2.17071047	     -2.62556977	      0.13775391	     -0.68371092	      0.72332730	    -16.62931235	     -6.15063171	     16.32580595	    -31.37826653	      5.10591975	    -11.74433432	     -0.39996431	    -12.67557885	     25.80263935	    -67.19584141	     -6.49285829	     -8.57129413
      2.08000000	    100.06902421	      2.44338050	     -2.41748641	      0.14645104	     -0.68350569	      0.72570797	    -16.20279713	     -6.90057681	     14.71525238	    -30.24535051	      4.98410196	    -11.58900345	      0.07432861	    -12.00559768	     27.04401836	    -66.69492016	     -6.10967287	     -8.68462840
      2.09000000	     99.74959384	      2.77820071	     -2.20876196	      0.15505615	     -0.68339407	      0.72781157	    -15.80312872	     -7.65715870	     13.18402540	    -29.25411616	      4.80624816	    -11.43268502	      0.44695980	    -11.35255019	     28.21646081	    -66.03038398	     -5.64413727	     -8.89307405
      2.10000000	     99.43542798	      3.18175158	     -2.00123070	      0.16356597	     -0.68337698	      0.72960298	    -15.43272610	     -8.32854786	     11.76341286	    -28.44071094	      4.63407294	    -11.28804796	      0.71412310	    -10.73987422	     29.32086288	    -65.19954641	     -5.23294241	     -9.13299279
      2.11000000	     99.15811269	      3.64326480	     -1.81587839	      0.17197739	     -0.68342713	      0.73104735	    -15.11578743	     -8.86025153	     10.47951056	    -27.79913132	      4.26030585	    -11.16388489	      0.84431452	    -10.18084039	     30.38697707	    -64.21557705	     -4.58866692	     -9.65166222
      2.12000000	     98.91981389	      4.19446780	     -1.65309198	      0.18029785	     -0.68354006	      0.73215481	    -14.84983571	     -9.37109456	      9.30059690	    -27.30487133	      4.20288928	    -11.04371114	      0.84342523	     -9.74555304	     31.40637844	    -63.05883298	     -4.47674729	     -9.78063233
      2.13000000	     98.73852297	      4.81307046	     -1.52986889	      0.18854179	     -0.68370833	      0.73290508	    -14.64252664	     -9.76514701	      8.25725180	    -26.95986313	      4.13913661	    -10.89312302	      0.69957251	     -9.41140204	     32.38970610	    -61.72567088	     -4.35629169	     -9.93423170
      2.14000000	     98.61528356	      5.48701906	     -1.44479543	      0.19672916	     -0.68392568	      0.73329777	    -14.48847686	    -10.03661713	      7.33916329	    -26.75137853	      4.09522396	    -10.71331381	      0.41989737	     -9.17162748	     33.32207909	    -60.20376597	     -4.27870508	    -10.06666968
      2.15000000	     98.54955184	      6.21013910	     -1.39864454	      0.20489357	     -0.68418991	      0.73334486	    -14.38263139	    -10.21747695	      6.52688128	    -26.65735582	      4.10222205	    -10.49325851	      0.01509966	     -9.02525435	     34.18541363	    -58.48030785	     -4.28279532	    -10.13535196
      2.16000000	     98.53539290	      6.97534961	     -1.38585060	      0.21306205	     -0.68449247	      0.73306092	    -14.31783427	    -10.34128161	      5.79756548	    -26.66093218	      4.18551290	    -10.25274999	     -0.49609940	     -8.97997388	     34.95656579	    -56.54629209	     -4.38719812	    -10.09323202
      2.17000000	     98.55465311	      7.72651893	     -1.39763782	      0.22128963	     -0.68483044	      0.73246975	    -14.26813619	    -10.30170284	      5.15581867	    -26.77157747	      4.65716389	     -9.54345594	     -1.08954384	     -8.93449870	     35.60142065	    -54.39192859	     -4.86674659	     -9.75671697
      2.18000000	     98.60345747	      8.52470784	     -1.41151162	      0.22962268	     -0.68522810	      0.73157836	    -14.24348192	    -10.32878963	      4.52595728	    -26.96196578	      5.17033755	     -8.99790271	     -1.73747978	     -9.00432809	     36.08187809	    -52.04079898	     -5.11611732	     -9.36851622
      2.19000000	     98.68411741	      9.30751997	     -1.44256804	      0.23813193	     -0.68566113	      0.73045164	    -14.24900433	    -10.46487316	      3.85817556	    -27.11627798	      5.30887076	     -8.89644899	     -2.44046369	     -9.07761464	     36.39016472	    -49.50139302	     -5.25959576	     -9.16074101
      2.20000000	     98.78648679	     10.02265584	     -1.46729320	      0.24680836	     -0.68611543	      0.72907396	    -14.27681687	    -10.56496961	      3.21231430	    -27.37636928	      5.87135940	     -8.67010765	     -3.19487279	     -9.02810358	     36.50060575	    -46.81796672	     -5.91314718	     -8.38701856
      2.21000000	     98.88694711	     10.74356543	     -1.42304938	      0.25577069	     -0.68661130	      0.72749296	    -14.33208854	    -10.85363563	      2.43409794	    -27.64166861	      6.19111103	     -8.54024586	     -3.95320046	     -9.00010749	     36.34109560	    -44.04892826	     -6.22765891	     -7.95489557
      2.22000000	     98.97212590	     11.37859955	     -1.34917213	      0.26501902	     -0.68714774	      0.72574559	    -14.37096324	    -11.09723917	      1.63904578	    -27.97606370	      6.66808658	     -8.45861182	     -4.70565925	     -8.80883822	     35.96386986	    -41.24418614	     -6.75192217	     -7.33352824
      2.23000000	     99.00281223	     11.96238301	     -1.34424074	      0.27456073	     -0.68777219	      0.72388846	    -14.32354719	    -11.31742248	      0.99000063	    -28.47915096	      7.41043546	     -8.27918678	     -5.37701767	     -8.49417967	     35.48795104	    -38.46677586	     -7.35322844	     -6.46991495
      2.24000000	     99.03618941	     12.46785732	     -1.17211594	      0.28445936	     -0.68838336	      0.72190866	    -14.34899136	    -11.64839626	      0.11351085	    -28.99518119	      7.68898676	     -8.21452121	     -6.06813070	     -8.00634440	     34.69769663	    -35.85622485	     -7.56215956	     -6.12874660
      2.25000000	     99.01272903	     12.88940135	     -1.00551697	      0.29466580	     -0.68905070	      0.71989137	    -14.31455012	    -11.93436688	     -0.67416920	    -29.69095818	      8.05007844	     -8.21148805	     -6.66935080	     -7.33346748	     33.80557660	    -33.45277581	     -7.83769959	     -5.75536021
      2.26000000	     98.90380667	     13.26753393	     -0.85988558	      0.30516139	     -0.68979015	      0.71789249	    -14.18943102	    -12.21385820	     -1.32552946	    -30.61919691	      8.76077843	     -8.12862040	     -7.10948111	     -6.59203417	     32.86976755	    -31.33371078	     -8.17356316	     -5.27498413
      2.27000000	     98.73615267	     13.52738139	     -0.68389828	      0.31592861	     -0.69054269	      0.71595058	    -13.99627494	    -12.32453848	     -1.89051396	    -31.72860324	      8.87222666	     -8.09958067	     -7.45158219	     -5.61091235	     31.86081217	    -29.55639887	     -8.12252745	     -5.18199650
      2.28000000	     98.47429387	     13.72069671	     -0.49753628	      0.32692039	     -0.69135570	      0.71410749	    -13.68311516	    -12.27910925	     -2.28783036	    -33.11055462	      8.99317206	     -8.08609460	     -7.59999010	     -4.56045107	     30.84361538	    -28.16337108	     -7.96981113	     -5.19463476
      2.29000000	     98.11324007	     13.84860881	     -0.33066589	      0.33809419	     -0.69224007	      0.71241527	    -13.22375232	    -12.03671308	     -2.46021458	    -34.77521965	      9.16224704	     -7.82188175	     -7.54617998	     -3.43608043	     29.86175496	    -27.15385340	     -7.40455795	     -5.64196034
      2.30000000	     97.65082652	     13.88559729	     -0.20607278	      0.34938836	     -0.69318815	      0.71089783	    -12.57329792	    -11.46034884	     -2.32738139	    -36.75222615	      9.03469711	     -7.79024102	     -7.27126257	     -2.26311011	     28.96613976	    -26.51597425	     -7.11058225	     -5.79695323
      2.31000000	     97.07660811	     13.89343215	     -0.10430703	      0.36078785	     -0.69425645	      0.70960561	    -11.73480528	    -10.64419067	     -1.93463600	    -39.00270630	      8.56739224	     -7.37540929	     -6.76716210	     -1.11215980	     28.11355796	    -26.18555655	     -6.08204506	     -6.58736261
      2.32000000	     96.39944126	     13.83544292	     -0.04057035	      0.37221685	     -0.69542647	      0.70854286	    -10.70540076	     -9.50791810	     -1.24229253	    -41.52917620	      8.01914912	     -7.01368896	     -6.05067628	      0.04243243	     27.33111265	    -26.10969848	     -5.29041993	     -7.19624766
      2.33000000	     95.61333221	     13.76854271	      0.01748827	      0.38365080	     -0.69673204	      0.70771451	     -9.48518647	     -8.08434486	     -0.28514545	    -44.32001871	      7.23605166	     -6.58634551	     -5.09599876	      1.01984409	     26.57787473	    -26.21774290	     -4.39115847	     -7.85420935
      2.34000000	     94.75925833	     13.65951047	      0.06095748	      0.39502866	     -0.69815023	      0.70709840	     -8.14783326	     -6.40217113	      0.90234034	    -47.31202545	      6.21217396	     -6.11022738	     -3.96845524	      1.85617007	     25.87848119	    -26.48885325	     -3.43921236	     -8.50566900
      2.35000000	     93.82012079	     13.54872378	      0.06948815	      0.40631227	     -0.69971434	      0.70679450	     -6.70433516	     -4.56628419	      2.31613344	    -50.45215152	      5.04826186	     -5.69191546	     -2.68418488	      2.55867641	     25.17761594	    -26.72483543	     -2.55674879	     -9.04250259
      2.36000000	     92.83439625	     13.42989764	      0.04704233	      0.41745346	     -0.70139712	      0.70676582	     -5.23063086	     -2.62264933	      3.91743315	    -53.68933969	      3.73046574	     -5.35770342	     -1.29385351	      3.08114508	     24.48902247	    -26.91665580	     -1.72288086	     -9.47825950
